<?xml version="1.0" standalone="no"?>
<!DOCTYPE svg PUBLIC "-//W3C//DTD SVG 1.1//EN" "http://www.w3.org/Graphics/SVG/1.1/DTD/svg11.dtd" >
<svg xmlns="http://www.w3.org/2000/svg">
<metadata>Generated by IcoMoon</metadata>
<defs>
<font id="theme-icon" horiz-adv-x="1024">
<font-face units-per-em="1024" ascent="960" descent="-64" />
<missing-glyph horiz-adv-x="1024" />
<glyph unicode="&#x20;" horiz-adv-x="512" d="" />
<glyph unicode="&#xe900;" glyph-name="witter" d="M954.867 448c0-244.588-198.278-442.867-442.867-442.867v-63.267c279.531 0 506.133 226.602 506.133 506.133h-63.267zM512 5.133c-244.588 0-442.867 198.278-442.867 442.867h-63.267c0-279.531 226.602-506.133 506.133-506.133v63.267zM69.133 448c0 244.588 198.278 442.867 442.867 442.867v63.267c-279.531 0-506.133-226.602-506.133-506.133h63.267zM512 890.867c244.588 0 442.867-198.278 442.867-442.867h63.267c0 279.531-226.602 506.133-506.133 506.133v-63.267zM691.357 600.623c-15.323-9.466-32.072-16.161-49.538-19.791-14.841 16.232-35.431 25.397-56.94 25.338-42.369 0.333-77.091-34.991-77.818-79.173 0.019-6.133 0.719-12.243 2.088-18.21-62.404 3.070-120.681 33.387-160.571 83.526-6.822-11.989-10.489-25.647-10.628-39.585 0.002-26.88 13.080-51.92 34.734-66.505-12.368 0.418-24.46 3.88-35.303 10.093 0 0 0 0 0-0.988-0.124-38.608 26.096-71.848 62.445-79.173-11.459-3.188-23.455-3.658-35.112-1.386 10.478-32.702 39.634-54.928 72.693-55.42-27.523-22.319-61.363-34.502-96.228-34.639-6.345 0.007-12.684 0.405-18.979 1.186 35.715-23.564 77.119-36.055 119.384-36.025 120.526-2.298 220.016 97.734 222.222 223.426 0.025 1.332 0.034 2.664 0.034 3.998 0 3.432 0 6.864 0 10.291 14.876 11.368 27.725 25.37 37.96 41.366-14.25-6.505-29.342-10.775-44.793-12.668 16.246 9.917 28.464 25.684 34.35 44.334z" />
<glyph unicode="&#xe901;" glyph-name="facebook" d="M954.867 448c0-244.588-198.278-442.867-442.867-442.867v-63.267c279.531 0 506.133 226.602 506.133 506.133h-63.267zM512 5.133c-244.588 0-442.867 198.278-442.867 442.867h-63.267c0-279.531 226.602-506.133 506.133-506.133v63.267zM69.133 448c0 244.588 198.278 442.867 442.867 442.867v63.267c-279.531 0-506.133-226.602-506.133-506.133h63.267zM512 890.867c244.588 0 442.867-198.278 442.867-442.867h63.267c0 279.531-226.602 506.133-506.133 506.133v-63.267zM459.277 553.442v-42.177h-42.177v-63.266h42.177v-189.799h84.357v189.799h56.095l7.171 63.266h-63.267v36.908c0 17.081 1.686 26.152 28.049 26.152h35.217v63.48h-56.519c-67.482-0.002-91.104-31.634-91.104-84.358z" />
<glyph unicode="&#xe902;" glyph-name="instagram" d="M954.867 448c0-244.588-198.278-442.867-442.867-442.867v-63.267c279.531 0 506.133 226.602 506.133 506.133h-63.267zM512 5.133c-244.588 0-442.867 198.278-442.867 442.867h-63.267c0-279.531 226.602-506.133 506.133-506.133v63.267zM69.133 448c0 244.588 198.278 442.867 442.867 442.867v63.267c-279.531 0-506.133-226.602-506.133-506.133h63.267zM512 890.867c244.588 0 442.867-198.278 442.867-442.867h63.267c0 279.531-226.602 506.133-506.133 506.133v-63.267zM625.88 637.8h-227.761c-41.928 0-75.92-33.992-75.92-75.92v-227.761c0-41.928 33.992-75.92 75.92-75.92h227.761c41.928 0 75.92 33.992 75.92 75.92v227.759c0.002 41.93-33.99 75.921-75.92 75.921zM587.92 580.86h56.94v-56.94h-56.94v56.94zM512 523.918c41.928 0 75.92-33.992 75.92-75.92s-33.992-75.92-75.92-75.92c-41.928 0-75.92 33.992-75.92 75.92s33.992 75.92 75.92 75.92zM663.841 334.118c0-20.966-16.994-37.961-37.961-37.961h-227.761c-20.966 0-37.961 16.994-37.961 37.961v132.862h39.858c-11.399-61.851 29.503-121.236 91.355-132.637s121.236 29.503 132.637 91.355c1.358 7.354 1.985 14.823 1.872 22.301-0.095 6.368-0.728 12.718-1.899 18.979h39.858v-132.86h0.002z" />
<glyph unicode="&#xe903;" glyph-name="bag" d="M672 682.24c0 93.583-80.404 168.539-175.683 159.296l-0.116-0.011c-77.715-7.254-144.2-86.003-144.2-167.392v-41.386c0-17.674-14.327-32-32-32s-32 14.326-32 32v41.386c0 110.593 87.938 220.411 202.195 231.11 133.389 12.907 245.805-92.178 245.805-223.002v-58.88c0-17.674-14.327-32-32-32s-32 14.326-32 32v58.88zM143.936 583.797c37.778 44.913 102.546 66.868 197.396 66.868h341.334c94.851 0 159.619-21.955 197.397-66.868 37.471-44.551 40.982-103.104 34.94-157.665l-0.051-0.451-31.963-255.727c-4.718-43.791-15.77-91.743-54.843-127.451-38.875-35.511-99.108-53.175-188.147-53.175h-256.001c-89.038 0-149.268 17.664-188.143 53.175-39.080 35.708-50.127 83.668-54.844 127.451l-32.022 256.177c-6.037 54.561-2.526 113.114 34.947 157.665zM172.58 433.392l32.041-256.328c4.261-39.768 13.086-67.833 34.401-87.311 21.605-19.734 62.495-36.425 144.976-36.425h256.001c82.481 0 123.372 16.691 144.978 36.425 21.314 19.478 30.142 47.543 34.406 87.311l0.059 0.556 31.978 255.777c5.442 49.429-0.241 85.311-20.334 109.203-19.829 23.567-61.082 44.065-148.421 44.065h-341.334c-87.337 0-128.595-20.498-148.418-44.065-20.097-23.893-25.776-59.777-20.334-109.208zM618.473 447.999c0 23.564 19.103 42.666 42.666 42.666h0.383c23.564 0 42.666-19.102 42.666-42.666s-19.102-42.666-42.666-42.666h-0.383c-23.564 0-42.666 19.102-42.666 42.666zM319.766 447.999c0 23.564 19.102 42.666 42.666 42.666h0.383c23.564 0 42.666-19.102 42.666-42.666s-19.103-42.666-42.666-42.666h-0.383c-23.564 0-42.666 19.102-42.666 42.666z" />
<glyph unicode="&#xe904;" glyph-name="cart" horiz-adv-x="1265" d="M865.575 35.942c-13.192 0-25.835 5.253-35.159 14.607-9.324 9.349-14.565 22.034-14.565 35.262h-99.436c0-39.677 15.715-77.728 43.689-105.785 27.967-28.052 65.909-43.815 105.472-43.815 39.557 0 77.499 15.764 105.472 43.815 27.973 28.058 43.689 66.108 43.689 105.785h-99.442c0-13.228-5.24-25.913-14.565-35.262-9.324-9.355-21.968-14.607-35.153-14.607zM515.686 35.942c-13.187 0-25.833 5.253-35.158 14.607-9.324 9.349-14.563 22.034-14.563 35.262h-99.907c0-19.679 3.863-39.159 11.371-57.332 7.507-18.179 18.51-34.696 32.381-48.604 13.871-13.914 30.339-24.949 48.462-32.479s37.548-11.403 57.164-11.403c19.617 0 39.042 3.873 57.165 11.403s34.593 18.565 48.459 32.479c13.872 13.908 24.877 30.425 32.382 48.604 7.511 18.173 11.372 37.653 11.372 57.332h-99.441c0-13.222-5.234-25.901-14.552-35.25-9.318-9.355-21.956-14.607-35.138-14.619zM1164.342 860.973c-2.711 0.463-5.457 0.692-8.204 0.685h-795.528c-13.187 0-25.834-5.254-35.158-14.605s-14.562-22.035-14.562-35.26c0-13.225 5.239-25.909 14.562-35.261s21.971-14.605 35.158-14.605h736.828l-82.848-498.657h-648.605l-169.050 419.557-100.839 248.081c-5.333 11.671-14.948 20.829-26.844 25.568s-25.156 4.695-37.021-0.124c-11.864-4.819-21.418-14.041-26.673-25.747s-5.806-24.993-1.539-37.096l161.001-396.212 109.882-292.088c8.111-24.588 24.86-41.665 49.037-41.665h732.754c11.776-0.006 23.173 4.174 32.154 11.806 8.987 7.632 14.981 18.215 16.914 29.859l99.442 598.386c2.168 13.043-0.922 26.414-8.584 37.174s-19.275 18.027-32.28 20.202z" />
<glyph unicode="&#xe905;" glyph-name="chevron-down" horiz-adv-x="1707" d="M185.999 648.999c-20.222 18.668-30.333 41.223-30.333 67.668 0 28 10.111 52.111 30.333 72.334 18.668 18.666 42.001 27.999 70.001 27.999s51.333-9.333 70.001-27.999l527.333-527.334 527.333 527.334c18.668 18.666 42.001 27.999 70.001 27.999s51.333-9.333 70.001-27.999c20.222-20.222 30.333-44.334 30.333-72.334 0-26.445-10.11-49-30.333-67.668l-597.333-597.333c-18.668-20.222-42.001-30.333-70.001-30.333s-51.333 10.11-70.001 30.333l-597.333 597.333z" />
<glyph unicode="&#xe906;" glyph-name="youtube" d="M954.867 448c0-244.588-198.278-442.867-442.867-442.867v-63.267c279.531 0 506.133 226.602 506.133 506.133h-63.267zM512 5.133c-244.588 0-442.867 198.278-442.867 442.867h-63.267c0-279.531 226.602-506.133 506.133-506.133v63.267zM69.133 448c0 244.588 198.278 442.867 442.867 442.867v63.267c-279.531 0-506.133-226.602-506.133-506.133h63.267zM512 890.867c244.588 0 442.867-198.278 442.867-442.867h63.267c0 279.531-226.602 506.133-506.133 506.133v-63.267zM489.81 508.431h6.792c15.027 0 27.236 12.133 27.327 27.164v44.221c-0.27 14.836-12.325 26.741-27.164 26.832h-6.792c-15.027 0-27.236-12.133-27.328-27.164v-44.221c0.272-14.836 12.325-26.743 27.164-26.832zM483.018 581.468c0.005 5.669 4.603 10.268 10.277 10.263 5.664-0.005 10.26-4.594 10.263-10.263v-47.535c-0.005-5.669-4.603-10.268-10.277-10.263-5.664 0.005-10.259 4.594-10.263 10.263v47.535zM409.153 510.103h24.014v52.834l27.328 74.862h-22.361l-16.562-49.689-16.561 49.689h-24.678l29.148-74.862-0.333-52.834zM558.214 508.431c9.666 0.928 18.725 5.139 25.67 11.926v-10.271h19.876v96.559h-19.876v-74.862c0 0-6.792-7.947-13.252-7.947s-6.792 5.135-6.792 5.135v77.677h-21.036v-84.965c1.149-7.623 7.696-13.254 15.405-13.252zM544.63 397.49c-3.991-0.195-7.717-2.056-10.271-5.135v-68.568c2.622-2.897 6.36-4.525 10.271-4.471 10.271 0 10.271 11.426 10.271 11.426v55.319c0 0.002-1.821 11.428-10.271 11.428zM623.303 397.49c-10.271 0-10.271-11.426-10.271-11.426v-14.74h20.535v14.74c0.002 0 0.002 11.426-10.269 11.426zM630.955 487.281c-0.285-0.005-0.575-0.012-0.861-0.023h-0.333c0 0-62.439 3.479-125.375 3.479s-125.708-3.314-125.708-3.314c-27.426 0.917-50.4-20.578-51.316-48.002-0.020-0.56-0.031-1.122-0.029-1.682-3.163-20.836-4.88-41.863-5.135-62.935 0.232-21.291 1.948-42.547 5.135-63.601-0.017-27.44 22.219-49.697 49.659-49.713 0.56 0 1.122 0.009 1.682 0.029 0 0 61.78-3.314 125.708-3.314s125.708 3.314 125.708 3.314c27.426-0.917 50.4 20.578 51.315 48.002 0.020 0.56 0.031 1.122 0.029 1.682 3.17 21.056 4.886 42.305 5.135 63.601-0.211 21.292-1.928 42.547-5.135 63.601-0.443 27.434-23.045 49.319-50.481 48.876zM430.021 431.776h-25.011v-128.853h-24.678v128.853h-25.011v21.201h75.193l-0.496-21.201zM495.11 302.923h-20.703v9.773c-7.047-6.56-16.082-10.585-25.67-11.426-7.703-0.159-14.317 5.457-15.405 13.084v101.195h21.364v-94.57c0 0 0-4.966 6.792-4.966s13.748 8.117 13.748 8.117v91.425h20.535l-0.664-112.624zM556.557 301.265c-8.711-0.079-16.945 3.976-22.193 10.93v-9.272h-22.361v150.053h22.193v-48.692c5.679 6.433 13.635 10.411 22.193 11.098 13.748 0 18.882-11.426 18.882-26.166l0.163-61.78c0 0 0-26.166-18.883-26.166zM655.764 354.595h-42.733v-24.515c0 0 0-11.426 10.271-11.426s10.271 11.426 10.271 11.426v11.596h22.193v-17.886c-2.97-14.337-16.224-24.171-30.806-22.857-15.106-1.36-29.034 8.251-33.123 22.857v63.931c0.463 15.912 13.731 28.436 29.64 27.973 1.169-0.032 2.329-0.139 3.485-0.313 14.761 2.114 28.438-8.138 30.55-22.898 0.224-1.575 0.311-3.17 0.256-4.762v-33.123h-0.002z" />
<glyph unicode="&#xe907;" glyph-name="tiktok" d="M954.867 448c0-244.588-198.278-442.867-442.867-442.867v-63.267c279.531 0 506.133 226.602 506.133 506.133h-63.267zM512 5.133c-244.588 0-442.867 198.278-442.867 442.867h-63.267c0-279.531 226.602-506.133 506.133-506.133v63.267zM69.133 448c0 244.588 198.278 442.867 442.867 442.867v63.267c-279.531 0-506.133-226.602-506.133-506.133h63.267zM512 890.867c244.588 0 442.867-198.278 442.867-442.867h63.267c0 279.531-226.602 506.133-506.133 506.133v-63.267zM480.009 258.204c-33.463 0-65.557 12.76-89.219 35.476s-36.956 53.525-36.956 85.649c0 32.124 13.294 62.933 36.956 85.649s55.756 35.476 89.219 35.476h30.806v-59.116h-30.806c-12.799 0-25.307-3.641-35.949-10.471s-18.935-16.528-23.83-27.875c-4.899-11.352-6.177-23.839-3.683-35.891s8.658-23.119 17.708-31.803c9.049-8.689 20.58-14.602 33.128-16.998s25.562-1.169 37.384 3.534c11.823 4.703 21.927 12.664 29.038 22.876s10.907 22.226 10.907 34.512v258.577h61.579v-29.539c0-16.476 6.816-32.274 18.949-43.924s28.592-18.191 45.754-18.191h30.806v-59.009h-31.024c-22.808-0.032-45.184 5.935-64.703 17.253v-125.060c-0.031-32.1-13.318-62.875-36.949-85.582s-55.682-35.489-89.115-35.543z" />
<glyph unicode="&#xe908;" glyph-name="pinterest" d="M954.867 448c0-244.588-198.278-442.867-442.867-442.867v-63.267c279.531 0 506.133 226.602 506.133 506.133h-63.267zM512 5.133c-244.588 0-442.867 198.278-442.867 442.867h-63.267c0-279.531 226.602-506.133 506.133-506.133v63.267zM69.133 448c0 244.588 198.278 442.867 442.867 442.867v63.267c-279.531 0-506.133-226.602-506.133-506.133h63.267zM512 890.867c244.588 0 442.867-198.278 442.867-442.867h63.267c0 279.531-226.602 506.133-506.133 506.133v-63.267zM507.309 637.769l-25.357-3.027c-15.934-2.863-31.396-7.761-45.961-14.571-33.242-16.703-59.364-43.93-73.893-77.012-1.958-6.204-3.48-12.524-4.556-18.921-11.103-37.675 3.23-77.99 36.054-101.42 4.954-2.837 16.442-8.135 19.81-1.135 1.55 4.292 2.617 8.734 3.171 13.248 1.911 3.788 2.989 7.909 3.171 12.111-1.187 6.243-8.124 10.028-11.095 15.138-4.885 10.297-7.963 21.291-9.113 32.548v5.487c1.472 46.455 35.581 86.107 83.004 96.501 14.836 3.828 30.3 4.921 45.565 3.216l21.987-3.594c25.133-6.267 45.91-23.122 56.462-45.789 6.915-19.427 8.282-40.263 3.96-60.36-2.181-8.702-1.783-16.273-4.556-24.219-10.103-29.326-24.959-56.766-58.438-63.954-18.208-4.544-37.119 4.525-44.178 21.192-2.51 5.065-3.406 10.724-2.574 16.273 5.745 23.841 14.265 45.033 19.81 68.872 6.834 17.64-2.598 37.232-21.068 43.761-0.954 0.338-1.924 0.636-2.902 0.893-22.981 5.296-40.611-15.138-46.752-28.381-5.739-14.023-7.118-29.333-3.96-44.087 3.343-6.403 5.743-13.214 7.13-20.246-4.358-18.921-9.51-37.844-14.856-56.766s-8.715-37.844-14.265-56.766c-2.574-8.323-2.374-17.219-4.556-25.922v-12.679c-1.371-10.028-0.904-20.213 1.387-30.083 1.187-5.108 0-11.356 1.983-15.138-0.089-1.677 0.402-3.337 1.387-4.729 8.124 0 19.81 20.625 23.377 26.489 7.717 11.725 14.345 24.071 19.81 36.898 5.347 11.923 6.141 25.164 10.301 37.844 4.195 10.445 7.181 21.291 8.914 32.358 2.569-5.37 6.873-9.816 12.284-12.679 19.016-12.846 42.819-17.447 65.574-12.679 27.664 5.131 52.518 19.482 70.131 40.493 11.973 15.558 21.207 32.878 27.338 51.278 3.369 9.458 3.96 20.058 6.539 30.083 4.27 24.544 0.893 49.744-9.71 72.471-22.784 49.382-72.309 78.145-151.354 77.010z" />
<glyph unicode="&#xe909;" glyph-name="snapchat" d="M954.867 448c0-244.588-198.278-442.867-442.867-442.867v-63.267c279.531 0 506.133 226.602 506.133 506.133h-63.267zM512 5.133c-244.588 0-442.867 198.278-442.867 442.867h-63.267c0-279.531 226.602-506.133 506.133-506.133v63.267zM69.133 448c0 244.588 198.278 442.867 442.867 442.867v63.267c-279.531 0-506.133-226.602-506.133-506.133h63.267zM512 890.867c244.588 0 442.867-198.278 442.867-442.867h63.267c0 279.531-226.602 506.133-506.133 506.133v-63.267zM678.113 385.48c-11.234 3.19-21.638 8.779-30.478 16.386s-15.91 17.044-20.709 27.65l4.24 1.808c26.957 9.955 33.315 25.338 34.829 33.78 1.047 5.683 0.436 11.546-1.764 16.895s-5.901 9.953-10.655 13.265c-4.223 3.33-9.098 5.749-14.315 7.101s-10.658 1.605-15.975 0.741c3.201 18.26 2.135 37.012-3.118 54.798s-14.55 34.127-27.173 47.75c-17.283 16.2-39.043 26.868-62.476 30.634s-47.458 0.448-68.978-9.522c-60.578-30.16-63.909-85.357-60.578-124.265-8.484 1.677-17.291 0.285-24.834-3.921-4.47-2.373-8.347-5.723-11.338-9.794s-5.017-8.766-5.926-13.732c-5.151-30.16 20.9-38.608 33.315-43.433l5.453-1.808c-4.443-10.253-11.123-19.391-19.561-26.746s-18.413-12.748-29.202-15.783c-5.224-1.109-10.139-3.366-14.382-6.601s-7.71-7.37-10.154-12.102c-2.867-7.167-2.867-15.152 0-22.318 4.847-8.448 11.676-15.605 19.904-20.857s17.611-8.446 27.345-9.303c3.939-16.89 11.509-30.16 39.98-24.131 7.813 1.416 15.814 1.416 23.627 0 4.84-2.309 9.408-5.145 13.632-8.446 18.161-14.821 40.487-23.672 63.909-25.338 22.537 0.38 44.128 9.086 60.578 24.431 4.992 5.026 11.343 8.498 18.277 9.996s14.159 0.961 20.793-1.55c8.385-1.925 17.196-0.508 24.552 3.944s12.675 11.586 14.825 19.886c45.131 9.955 49.975 31.973 49.975 41.322 0.46 6.935-1.715 13.793-6.091 19.209s-10.633 9.004-17.536 10.045zM432.177 417.453c2.245 4.125 3.59 8.672 3.954 13.348s-0.261 9.378-1.836 13.797c-2.499 5.749-6.6 10.666-11.811 14.176 2.208 0.574 4.271 1.602 6.056 3.015 10.599 7.241 9.693 22.018 9.085 41.021-1.514 30.16-3.028 68.467 39.376 88.372 14.413 6.271 30.336 8.266 45.863 5.753s29.994-9.435 41.667-19.929c9.079-10.531 15.6-22.997 19.071-36.437s3.78-27.494 0.919-41.079c0-17.191-2.119-32.273 9.995-38.002 1.836-1.145 3.904-1.866 6.056-2.113-5.765-3.389-10.236-8.587-12.721-14.777-1.475-6.179-1.613-12.603-0.411-18.84s3.715-12.154 7.378-17.354c11.167-22.172 28.796-40.46 50.582-52.48h-3.637c-5.887 0.271-11.676-1.553-16.341-5.148s-7.886-8.715-9.102-14.456c0.073-1.206 0.073-2.415 0-3.62-12.488 2.456-25.372 2.020-37.663-1.275s-23.653-9.36-33.213-17.728c-19.688-13.876-33.622-23.826-72.691 3.921-11.429 10.279-26.107 16.25-41.494 16.89-7.812-0.234-15.595-0.94-23.32-2.113-0.663 3.971-1.883 7.83-3.637 11.462-2.574 3.804-6.047 6.921-10.114 9.077s-8.601 3.286-13.206 3.291h-4.24c12.879 5.995 24.424 14.505 33.943 25.022s16.826 22.828 21.481 36.208z" />
<glyph unicode="&#xe90a;" glyph-name="chevron-left" horiz-adv-x="745" d="M630.927 60.113c14.181-14.181 21.272-31.088 21.272-50.73 0-18.544-7.091-34.36-21.272-47.448-13.091-14.187-29.455-21.281-49.091-21.281s-35.999 7.094-49.091 21.281l-418.909 418.905c-14.181 13.091-21.273 28.909-21.273 47.455 0 19.637 7.091 36.546 21.273 50.727l418.909 418.909c13.091 13.091 29.455 19.636 49.091 19.636s36-6.545 49.091-19.636c14.181-14.182 21.272-31.091 21.272-50.727 0-18.546-7.091-34.364-21.272-47.455l-369.819-369.818 369.819-369.819z" />
<glyph unicode="&#xe90b;" glyph-name="chevron-right" horiz-adv-x="745" d="M212.018-38.065c-13.091-14.187-29.455-21.281-49.091-21.281s-35.999 7.094-49.091 21.281c-14.181 13.089-21.273 28.905-21.273 47.448 0 19.642 7.091 36.548 21.273 50.73l369.819 369.819-369.819 369.818c-14.181 13.091-21.273 28.909-21.273 47.455 0 19.637 7.091 36.545 21.273 50.727 13.091 13.091 29.455 19.636 49.091 19.636s36-6.545 49.091-19.636l418.909-418.909c14.181-14.181 21.272-31.091 21.272-50.727 0-18.546-7.091-34.364-21.272-47.455l-418.909-418.905z" />
<glyph unicode="&#xe90c;" glyph-name="clock" horiz-adv-x="967" d="M966.542 476.729c0 32.974-3.089 65.261-9.273 96.86-6.872 31.6-16.486 61.826-28.854 90.678-11.679 28.852-26.448 56.33-44.305 82.434-17.175 26.104-36.756 50.148-58.738 72.13-21.982 21.295-46.023 40.874-72.129 58.734-25.418 17.174-52.554 31.943-81.402 44.308-28.854 12.365-59.079 21.639-90.681 27.822-31.598 6.87-64.228 10.304-97.889 10.304s-66.291-3.435-97.891-10.304c-31.6-6.183-61.826-15.456-90.677-27.822s-55.987-27.135-81.404-44.308c-26.104-17.861-50.148-37.439-72.13-58.734-21.982-21.982-41.561-46.026-58.734-72.13-17.861-26.105-32.974-53.583-45.339-82.434-11.678-28.852-20.952-59.078-27.822-90.678-6.183-31.6-9.274-63.886-9.274-96.86 0-33.661 3.091-66.291 9.274-97.889 6.87-31.602 16.143-61.827 27.822-90.681 12.365-28.848 27.478-56.331 45.339-82.432 17.174-25.418 36.752-49.118 58.734-71.1s46.026-41.563 72.13-58.738c25.417-17.857 52.552-32.973 81.404-45.335 28.852-12.368 59.078-21.641 90.677-27.824 31.6-6.866 64.23-10.303 97.891-10.303s66.291 3.436 97.889 10.303c31.602 6.184 61.827 15.457 90.681 27.824 28.848 12.362 55.984 27.477 81.402 45.335 26.106 17.175 50.148 36.756 72.129 58.738s41.563 45.682 58.738 71.1c17.857 26.101 32.626 53.584 44.305 82.432 12.368 28.854 21.982 59.079 28.854 90.681 6.184 31.598 9.273 64.228 9.273 97.889zM878.956 476.729c0-54.956-10.303-106.479-30.913-154.567-20.611-48.082-48.771-89.987-84.497-125.707-36.409-35.726-78.655-63.886-126.743-84.497-47.4-20.611-98.575-30.913-153.532-30.913s-106.478 10.303-154.564 30.913c-47.4 20.611-89.304 48.771-125.712 84.497-35.722 35.721-63.886 77.625-84.495 125.707-20.609 48.088-30.913 99.611-30.913 154.567 0 54.269 10.304 105.447 30.913 153.534s48.773 89.991 84.495 125.712c36.409 35.722 78.313 63.887 125.712 84.495 48.086 21.296 99.608 31.943 154.564 31.943s106.132-10.647 153.532-31.943c48.088-20.609 90.334-48.774 126.743-84.495 35.726-35.721 63.886-77.625 84.497-125.712s30.913-99.265 30.913-153.534zM438.963 740.519v-263.79c0-8.93 2.061-16.831 6.183-23.7 4.809-6.869 10.991-12.022 18.547-15.457l176.205-88.616c10.303-5.495 21.294-6.525 32.973-3.095 11.679 4.124 20.264 11.679 25.759 22.67s6.184 22.329 2.059 34.006c-3.43 11.678-10.644 20.266-21.635 25.761l-151.475 75.221v236.999c0 11.678-4.465 21.639-13.396 29.883-8.243 8.93-18.547 13.396-30.913 13.396s-23.013-4.465-31.943-13.396c-8.244-8.244-12.365-18.204-12.365-29.883z" />
<glyph unicode="&#xe90d;" glyph-name="heart" horiz-adv-x="1205" d="M1107.649 866.382c-62.53 60.124-145.275 93.618-231.279 93.618-86.010 0-168.755-33.494-231.285-93.618l-42.731-41.483-42.729 41.483c-62.373 60.532-145.368 94.080-231.533 93.59-86.004 0.411-168.816-33.135-231.037-93.59-30.629-29.153-55.049-64.403-71.744-103.564s-25.31-81.396-25.31-124.087c0-42.691 8.615-84.926 25.31-124.087s41.115-74.411 71.744-103.564l471.513-461.371c4.623-4.12 9.812-7.529 15.402-10.12 11.805-4.789 24.962-4.789 36.768 0 5.59 2.59 10.776 5.999 15.402 10.12l471.51 461.371c30.63 29.153 55.049 64.403 71.746 103.564s25.311 81.396 25.311 124.087c0 42.691-8.614 84.927-25.311 124.087s-41.117 74.41-71.746 103.564zM1107.649 639.743c0.145-29.927-5.686-59.572-17.131-87.138s-28.262-52.479-49.447-73.229l-438.718-430.007-438.224 430.007c-21.507 20.578-38.648 45.423-50.364 73.005s-17.761 57.313-17.761 87.363c0 30.050 6.045 59.782 17.761 87.363s28.857 52.426 50.364 73.005c44.129 42.93 102.929 66.697 163.962 66.271 61.336 0.476 120.464-23.279 164.954-66.271l75.522-74.366c4.623-4.118 9.812-7.526 15.402-10.118 11.805-4.787 24.962-4.787 36.768 0 5.59 2.591 10.776 6 15.402 10.118l76.017 74.366c44.128 42.93 102.93 66.697 163.96 66.271 61.338 0.476 120.465-23.279 164.954-66.271 21.365-20.664 38.37-45.538 49.989-73.108 11.613-27.57 17.601-57.259 17.583-87.259h-0.994z" />
<glyph unicode="&#xe90e;" glyph-name="login" d="M1017.537 10.198c-51.79 87.612-125.687 160.25-214.371 210.715-88.69 50.465-189.091 77.011-291.259 77.011-102.171 0-202.571-26.546-291.256-77.011s-162.582-123.103-214.372-210.715c-6.34-11.36-7.955-24.745-4.497-37.274 1.631-6.385 4.614-12.348 8.75-17.492s9.329-9.349 15.232-12.33c7.615-4.295 16.229-6.523 24.982-6.463 8.679-0.367 17.291 1.675 24.876 5.885s13.849 10.433 18.092 17.974c42.871 72.565 104.056 132.728 177.496 174.532s156.583 63.795 241.196 63.795c84.613 0 167.759-21.992 241.198-63.795s134.626-101.966 177.495-174.532c6.674-11.288 17.553-19.492 30.274-22.841 12.722-3.355 26.263-1.572 37.677 4.945 5.68 3.018 10.662 7.186 14.619 12.234 3.963 5.054 6.807 10.878 8.361 17.095 1.849 6.355 2.403 13.011 1.632 19.582s-2.855 12.926-6.126 18.685zM511.983 345.6c80.508-0.012 157.803 31.87 215.256 88.79s90.467 134.328 91.943 215.568c0 82.228-32.364 161.088-89.973 219.233-57.615 58.144-135.751 90.809-217.225 90.809s-159.612-32.665-217.224-90.809c-57.611-58.145-89.976-137.005-89.976-219.233 1.476-81.239 34.492-158.647 91.944-215.568s134.748-88.802 215.256-88.79zM307.183 649.958c0 54.819 21.577 107.392 59.985 146.155s90.499 60.539 144.815 60.539c54.316 0 106.41-21.776 144.816-60.539s59.982-91.336 59.982-146.155c0-54.819-21.576-107.392-59.982-146.156s-90.501-60.539-144.816-60.539c-54.317 0-106.408 21.777-144.815 60.539s-59.985 91.337-59.985 146.156z" />
<glyph unicode="&#xe90f;" glyph-name="search" d="M716.8 253.38c-6.024 0-6.024 0 0 0-6.024-5.987-6.024-5.987-6.024-5.987-30.118-29.943-66.259-53.893-114.447-71.861-42.165-17.962-90.353-23.956-138.541-23.956s-96.376 11.981-138.541 29.943c-42.165 17.968-78.306 41.918-114.447 77.848-30.118 29.943-60.235 71.861-78.306 113.779-18.071 35.93-24.094 77.848-24.094 125.754s12.047 95.813 30.118 137.731c18.071 47.906 42.165 83.836 72.282 119.766 36.141 29.942 72.282 53.895 114.447 71.86s90.353 29.941 138.541 29.941c48.188 0 96.376-11.977 138.541-29.941s84.329-41.918 114.447-77.848c30.118-29.942 54.212-71.86 78.306-113.778 18.071-41.918 30.118-83.836 30.118-137.731 0-47.906-12.047-95.813-30.118-137.731-18.071-35.929-42.165-71.86-72.282-107.79zM1005.929 31.81l-186.729 185.639c30.118 41.918 54.212 83.835 72.282 131.741 18.071 47.909 24.094 101.804 24.094 155.699 0 65.872-12.047 125.754-36.141 179.649s-54.212 101.801-96.376 143.72c-42.165 41.918-90.353 71.859-144.565 95.813s-114.447 35.93-180.706 35.93c-60.235 0-120.471-11.977-180.706-35.93-54.212-23.953-102.4-53.895-144.565-95.813s-72.282-89.825-96.376-149.708c-24.094-53.895-36.141-113.778-36.141-179.649 0-59.883 12.047-119.766 36.141-179.648 24.094-53.899 60.235-101.804 102.4-143.721s90.353-71.861 144.565-101.798c54.212-17.968 114.447-29.943 174.682-29.943 54.212 0 108.424 5.987 156.612 23.95 48.188 17.968 96.376 41.918 132.518 71.861l186.729-185.639c12.047-11.975 24.094-17.962 36.141-17.962s24.094 5.987 36.141 17.962c12.047 11.981 18.071 23.956 18.071 35.93 0 17.968-6.024 29.943-18.071 41.918z" />
<glyph unicode="&#xe910;" glyph-name="star" horiz-adv-x="5027" d="M1021.272 544.546c3.035-9.091 3.333-18.485 0.912-28.181-2.43-9.697-7.578-17.879-15.453-24.546l-202.732-178.182 60-263.636c1.818-9.697 0.909-19.091-2.728-28.18-3.030-9.095-8.484-16.673-16.364-22.733-8.484-6.060-17.576-9.086-27.273-9.086-9.696-0.605-18.788 1.517-27.273 6.358l-231.818 139.095-231.818-139.095c-3.637-1.815-7.879-3.333-12.727-4.543-4.243-1.21-8.485-1.815-12.727-1.815-4.849 0-10 0.903-15.455 2.728-4.848 1.21-9.394 3.333-13.636 6.358-7.879 6.060-13.637 13.638-17.273 22.733-3.030 9.088-3.636 18.482-1.818 28.18l60 263.636-202.727 178.182c-7.879 6.667-13.031 14.849-15.455 24.546s-2.121 19.090 0.909 28.181c3.030 9.697 8.182 17.576 15.454 23.637 7.879 6.060 16.667 9.696 26.364 10.908l269.090 23.637 106.364 249.091c3.636 9.091 9.697 16.364 18.182 21.818s17.576 8.182 27.273 8.182c9.697 0 18.788-2.727 27.273-8.182s14.545-12.727 18.182-21.818l106.364-249.091 269.092-23.637c9.7-1.212 18.181-4.848 25.451-10.908 7.885-6.061 13.34-13.939 16.365-23.637zM2008.036 544.546c3.035-9.091 3.333-18.485 0.912-28.181-2.43-9.697-7.578-17.879-15.453-24.546l-202.733-178.182 60.006-263.636c1.815-9.697 0.903-19.091-2.728-28.18-3.035-9.095-8.49-16.673-16.365-22.733-8.49-6.060-17.576-9.086-27.276-9.086-9.7-0.605-18.786 1.517-27.276 6.358l-231.815 139.095-231.815-139.095c-3.64-1.815-7.885-3.333-12.735-4.543-4.236-1.21-8.481-1.815-12.726-1.815-4.85 0-9.998 0.903-15.453 2.728-4.85 1.21-9.393 3.333-13.638 6.358-7.875 6.060-13.638 13.638-17.268 22.733-3.035 9.088-3.64 18.482-1.815 28.18l59.997 263.636-202.733 178.182c-7.875 6.667-13.023 14.849-15.453 24.546-2.42 9.696-2.122 19.090 0.912 28.181 3.025 9.697 8.183 17.576 15.453 23.637 7.875 6.060 16.663 9.696 26.363 10.908l269.089 23.637 106.366 249.091c3.64 9.091 9.7 16.364 18.181 21.818 8.49 5.454 17.576 8.182 27.276 8.182s18.786-2.727 27.276-8.182c8.481-5.455 14.541-12.727 18.181-21.818l106.366-249.091 269.089-23.637c9.7-1.212 18.181-4.848 25.451-10.908 7.885-6.061 13.34-13.939 16.365-23.637zM2994.8 544.546c3.035-9.091 3.333-18.485 0.912-28.181-2.43-9.697-7.578-17.879-15.453-24.546l-202.733-178.182 60.006-263.636c1.815-9.697 0.903-19.091-2.728-28.18-3.035-9.095-8.49-16.673-16.365-22.733-8.49-6.060-17.576-9.086-27.276-9.086-9.7-0.605-18.786 1.517-27.276 6.358l-231.815 139.095-231.815-139.095c-3.64-1.815-7.885-3.333-12.735-4.543-4.236-1.21-8.481-1.815-12.726-1.815-4.85 0-9.998 0.903-15.453 2.728-4.85 1.21-9.393 3.333-13.638 6.358-7.875 6.060-13.638 13.638-17.268 22.733-3.035 9.088-3.64 18.482-1.815 28.18l59.997 263.636-202.733 178.182c-7.875 6.667-13.023 14.849-15.453 24.546-2.42 9.696-2.122 19.090 0.912 28.181 3.025 9.697 8.183 17.576 15.453 23.637 7.875 6.060 16.663 9.696 26.363 10.908l269.089 23.637 106.366 249.091c3.64 9.091 9.7 16.364 18.181 21.818 8.49 5.454 17.576 8.182 27.276 8.182s18.786-2.727 27.276-8.182c8.481-5.455 14.541-12.727 18.181-21.818l106.366-249.091 269.089-23.637c9.7-1.212 18.181-4.848 25.451-10.908 7.885-6.061 13.34-13.939 16.365-23.637zM3981.563 544.546c3.035-9.091 3.333-18.485 0.912-28.181-2.43-9.697-7.578-17.879-15.453-24.546l-202.733-178.182 59.997-263.636c1.825-9.697 0.912-19.091-2.718-28.18-3.035-9.095-8.49-16.673-16.365-22.733-8.49-6.060-17.576-9.086-27.276-9.086-9.7-0.605-18.786 1.517-27.276 6.358l-231.815 139.095-231.815-139.095c-3.64-1.815-7.885-3.333-12.735-4.543-4.236-1.21-8.481-1.815-12.726-1.815-4.85 0-9.998 0.903-15.453 2.728-4.85 1.21-9.393 3.333-13.638 6.358-7.875 6.060-13.638 13.638-17.268 22.733-3.035 9.088-3.64 18.482-1.825 28.18l60.006 263.636-202.733 178.182c-7.875 6.667-13.023 14.849-15.453 24.546-2.42 9.696-2.122 19.090 0.912 28.181 3.025 9.697 8.183 17.576 15.453 23.637 7.875 6.060 16.663 9.696 26.363 10.908l269.089 23.637 106.366 249.091c3.64 9.091 9.7 16.364 18.181 21.818 8.49 5.454 17.576 8.182 27.276 8.182s18.786-2.727 27.276-8.182c8.481-5.455 14.541-12.727 18.181-21.818l106.366-249.091 269.089-23.637c9.7-1.212 18.181-4.848 25.451-10.908 7.885-6.061 13.34-13.939 16.365-23.637zM4968.327 544.546c3.035-9.091 3.333-18.485 0.912-28.181-2.43-9.697-7.578-17.879-15.453-24.546l-202.733-178.182 60.006-263.636c1.815-9.697 0.903-19.091-2.728-28.18-3.035-9.095-8.49-16.673-16.365-22.733-8.49-6.060-17.576-9.086-27.276-9.086-9.7-0.605-18.786 1.517-27.276 6.358l-231.815 139.095-231.815-139.095c-3.64-1.815-7.885-3.333-12.735-4.543-4.236-1.21-8.481-1.815-12.726-1.815-4.85 0-9.998 0.903-15.453 2.728-4.85 1.21-9.393 3.333-13.638 6.358-7.875 6.060-13.638 13.638-17.268 22.733-3.035 9.088-3.64 18.482-1.815 28.18l59.997 263.636-202.733 178.182c-7.875 6.667-13.023 14.849-15.453 24.546-2.42 9.696-2.122 19.090 0.912 28.181 3.035 9.697 8.183 17.576 15.453 23.637 7.875 6.060 16.673 9.696 26.363 10.908l269.089 23.637 106.366 249.091c3.64 9.091 9.7 16.364 18.181 21.818 8.49 5.454 17.576 8.182 27.276 8.182s18.786-2.727 27.276-8.182c8.481-5.455 14.541-12.727 18.181-21.818l106.366-249.091 269.089-23.637c9.7-1.212 18.181-4.848 25.451-10.908 7.885-6.061 13.34-13.939 16.365-23.637z" />
<glyph unicode="&#xe911;" glyph-name="icon-box" d="M149.911 667.882c-13.985 8.093-31.883 3.317-39.977-10.668s-3.317-31.883 10.668-39.977zM512.003 424.534l-14.654-25.322c9.069-5.248 20.252-5.246 29.319 0.006zM900.854 615.965c13.982 8.099 18.751 25.999 10.652 39.981s-25.999 18.751-39.981 10.652zM120.603 617.237l376.746-218.026 29.309 50.645-376.746 218.026zM526.668 399.217l374.186 216.747-29.329 50.633-374.186-216.747zM482.745 37.971c0-16.158 13.099-29.257 29.257-29.257s29.257 13.099 29.257 29.257zM541.259 424.958c0 16.158-13.099 29.257-29.257 29.257s-29.257-13.099-29.257-29.257zM541.259 37.971v386.987h-58.514v-386.987zM423.681 854.184l14.221-25.569 0.102 0.056-14.322 25.512zM195.841 727.463l14.173-25.595 0.048 0.027-14.221 25.569zM195.841 168.104l14.221 25.569-0.048 0.027zM423.681 41.382l-14.221-25.569 0.070-0.039 14.151 25.607zM600.747 41.382l14.151-25.607 0.070 0.039-14.221 25.569zM828.588 168.104l-14.173 25.595-0.047-0.027 14.221-25.569zM828.588 727.463l-14.221-25.569 0.047-0.027 14.173 25.595zM600.747 854.184l-14.227-25.565 0.007-0.004zM409.46 879.753l-227.84-126.721 28.442-51.137 227.84 126.721zM181.668 753.058c-31.471-17.426-58.37-46.806-77.323-78.948-18.951-32.14-31.628-69.876-31.628-105.793h58.514c0 22.962 8.443 50.506 23.518 76.073 15.074 25.564 35.108 46.318 55.263 57.478zM72.718 568.317v-241.068h58.514v241.068zM72.718 327.249c0-35.918 12.677-73.654 31.628-105.793 18.952-32.142 45.851-61.522 77.323-78.948l28.345 51.191c-20.155 11.16-40.19 31.914-55.263 57.478-15.075 25.567-23.518 53.11-23.518 76.073zM181.62 142.535l227.84-126.721 28.442 51.137-227.84 126.721zM409.529 15.775c29.747-16.439 67.051-23.81 102.684-23.81s72.937 7.371 102.684 23.81l-28.303 51.214c-18.893-10.441-45.802-16.51-74.382-16.51s-55.489 6.069-74.382 16.51zM614.968 15.814l227.841 126.721-28.442 51.137-227.841-126.721zM842.761 142.508c31.471 17.426 58.37 46.806 77.323 78.948 18.951 32.14 31.628 69.876 31.628 105.793h-58.514c0-22.962-8.443-50.506-23.518-76.073-15.074-25.564-35.108-46.318-55.263-57.478l28.345-51.191zM951.711 327.249v241.068h-58.514v-241.068zM951.711 568.317c0 35.918-12.677 73.654-31.628 105.793-18.952 32.142-45.851 61.522-77.323 78.948l-28.345-51.191c20.155-11.16 40.19-31.914 55.263-57.478 15.075-25.567 23.518-53.11 23.518-76.073zM842.809 753.031l-227.841 126.721-28.442-51.137 227.841-126.721zM614.975 879.749c-29.929 16.656-67.239 24.172-102.921 24.172-35.669 0-72.924-7.511-102.696-24.225l28.645-51.023c18.868 10.593 45.613 16.735 74.051 16.735 28.425 0 55.329-6.137 74.466-16.788zM696.077 395.089c0-16.158 13.099-29.257 29.257-29.257s29.257 13.099 29.257 29.257zM725.334 551.247h29.257c0 10.452-5.576 20.11-14.627 25.336zM335.058 810.399c-13.993 8.080-31.887 3.287-39.967-10.706s-3.287-31.887 10.706-39.967zM754.591 395.089v156.159h-58.514v-156.159zM739.964 576.584l-404.906 233.815-29.261-50.673 404.906-233.815z" />
<glyph unicode="&#xe912;" glyph-name="icon-checkmark" d="M378.277 468.645c-11.402 11.449-29.926 11.488-41.376 0.086s-11.488-29.926-0.086-41.376zM460.373 344.747l-20.731-20.645c5.487-5.509 12.94-8.608 20.716-8.612s15.232 3.087 20.724 8.591zM687.163 530.587c11.414 11.437 11.395 29.962-0.044 41.376-11.437 11.414-29.962 11.395-41.376-0.043l41.419-41.333zM336.816 427.355l102.827-103.253 41.461 41.29-102.827 103.253zM481.083 324.080l206.080 206.507-41.419 41.333-206.080-206.507zM458.667 855.466l19.014-22.236zM566.187 855.466l19.088 22.175-0.231 0.196-18.855-22.371zM633.6 797.44l19.161 22.109-0.076 0.064-19.086-22.174zM862.293 568.746l22.174 19.087-0.064 0.076-22.109-19.161zM920.32 501.333l22.237 19.014-0.061 0.073-22.174-19.086zM920.32 393.813l22.175-19.088 0.196 0.231-22.371 18.855zM862.293 326.4l22.109-19.161 0.064 0.076-22.174 19.087zM633.6 97.706l19.087-22.174 0.076 0.065-19.161 22.109zM566.187 39.68l19.014-22.237 0.073 0.063-19.087 22.174zM458.667 39.68l-19.088-22.175 0.231-0.196 18.855 22.371zM391.253 97.706l-19.161-22.109 0.075-0.065 19.086 22.174zM161.707 326.4l22.477 18.731-0.174 0.205-22.303-18.936zM104.107 394.24l-22.396-18.826 0.094-0.111 22.303 18.936zM104.107 500.906l-22.303 18.936-0.093-0.111 22.396-18.826zM161.707 568.746l22.303-18.937 0.172 0.208-22.476 18.73zM391.253 797.866l-19.006 22.244-0.155-0.135 19.161-22.109zM477.68 833.23c18.414 15.746 50.599 15.924 69.651-0.135l37.711 44.742c-40.681 34.288-104.924 34.467-145.389-0.135l38.027-44.473zM547.1 833.291l67.413-58.027 38.173 44.348-67.413 58.027zM614.439 775.329c9.793-8.487 22.325-15.046 34.202-19.484 11.879-4.438 25.68-7.717 38.72-7.717v58.514c-4.026 0-10.706 1.201-18.24 4.016-7.536 2.816-13.352 6.283-16.358 8.889l-38.323-44.218zM687.36 748.128h72.533v58.514h-72.533zM759.893 748.128c29.068 0 53.090-24.021 53.090-53.090h58.514c0 61.385-50.219 111.604-111.604 111.604zM812.983 695.039v-72.533h58.514v72.533zM812.983 622.505c0-12.866 3.298-26.668 7.699-38.511 4.402-11.846 10.951-24.544 19.502-34.411l44.219 38.323c-2.542 2.933-6.020 8.796-8.871 16.469-2.853 7.677-4.034 14.356-4.034 18.129zM840.119 549.659l58.027-67.413 44.348 38.173-58.027 67.413zM898.084 482.318c15.746-18.414 15.924-50.599-0.135-69.651l44.742-37.711c34.288 40.681 34.467 104.924-0.135 145.389l-44.473-38.027zM898.145 412.899l-58.027-67.413 44.348-38.173 58.027 67.413zM840.184 345.561c-8.487-9.793-15.046-22.325-19.484-34.202-4.438-11.879-7.717-25.68-7.717-38.72h58.514c0 4.026 1.201 10.706 4.016 18.24 2.816 7.536 6.283 13.352 8.889 16.358zM812.983 272.64v-72.533h58.514v72.533zM812.983 200.106c0-29.068-24.021-53.090-53.090-53.090v-58.514c61.385 0 111.604 50.219 111.604 111.604zM759.893 147.017h-72.533v-58.514h72.533zM687.36 147.017c-12.866 0-26.668-3.298-38.511-7.699-11.846-4.402-24.544-10.951-34.411-19.502l38.323-44.219c2.933 2.542 8.796 6.020 16.469 8.871 7.678 2.853 14.356 4.035 18.129 4.035zM614.514 119.88l-67.413-58.027 38.173-44.348 67.413 58.027zM547.173 61.916c-18.414-15.746-50.599-15.924-69.651 0.134l-37.711-44.742c40.681-34.288 104.924-34.467 145.389 0.134zM477.753 61.854l-67.413 58.027-38.173-44.348 67.413-58.027zM410.415 119.816c-9.793 8.487-22.325 15.046-34.202 19.484-11.879 4.438-25.68 7.717-38.72 7.717v-58.514c4.026 0 10.706-1.201 18.24-4.016 7.536-2.816 13.352-6.283 16.358-8.889zM337.493 147.017h-73.813v-58.514h73.813zM263.68 147.017c-29.068 0-53.090 24.021-53.090 53.090h-58.514c0-61.385 50.219-111.604 111.604-111.604zM210.59 200.106v72.96h-58.514v-72.96zM210.59 273.066c0 12.886-3.308 26.58-7.633 38.263-4.34 11.723-10.698 24.108-18.775 33.8l-44.952-37.46c2.59-3.108 6.044-9.070 8.852-16.653 2.822-7.624 3.994-14.196 3.994-17.95zM184.009 345.336l-57.6 67.84-44.605-37.872 57.6-67.84zM126.503 413.065c-15.598 18.557-15.598 50.459 0 69.015l-44.792 37.651c-33.895-40.323-33.895-103.994 0-144.318zM126.409 481.97l57.6 67.84-44.605 37.872-57.6-67.84zM184.183 550.016c8.077 9.692 14.436 22.077 18.775 33.8 4.325 11.683 7.633 25.377 7.633 38.263h-58.514c0-3.754-1.172-10.327-3.994-17.95-2.807-7.584-6.262-13.546-8.852-16.653l44.952-37.46zM210.591 622.080v73.387h-58.514v-73.387zM210.591 695.466c0 29.068 24.021 53.090 53.090 53.090v58.514c-61.385 0-111.604-50.219-111.604-111.604zM263.68 748.556h73.813v58.514h-73.813zM337.493 748.556c12.866 0 26.668 3.298 38.511 7.699 11.846 4.402 24.544 10.951 34.411 19.502l-38.323 44.219c-2.933-2.542-8.796-6.020-16.469-8.871-7.678-2.853-14.356-4.034-18.129-4.034v-58.514zM410.259 775.623l67.413 57.6-38.011 44.487-67.413-57.6z" />
<glyph unicode="&#xe913;" glyph-name="icon-message" d="M405.333 277.334v29.257c-8.701 0-16.95-3.873-22.509-10.567zM365.653 229.547l22.476-18.729 0.032 0.039-22.509 18.69zM342.187 201.386l22.41-18.809 0.066 0.079zM270.506 211.201l-26.639-12.1 0.086-0.185zM213.333 337.068l26.638 12.1c-2.156 4.747-5.542 8.832-9.807 11.831zM695.466 701.013l-26.299-12.821c0.061-0.129 0.126-0.255 0.19-0.381l26.109 13.201zM696.076 576c0-147.078-128.31-269.41-290.743-269.41v-58.514c190.847 0 349.257 144.761 349.257 327.924zM382.824 296.024l-39.68-47.786 45.018-37.381 39.68 47.786zM343.177 248.277l-23.467-28.161 44.953-37.459 23.467 28.161zM319.776 220.194c-6.158-7.338-18.419-5.999-22.717 3.292l-53.105-24.571c22.155-47.883 86.695-56.787 120.643-16.338zM297.144 223.301l-57.173 125.867-53.276-24.2 57.173-125.867zM230.164 360.999c-70.68 49.709-115.574 127.776-115.574 215.001h-58.514c0-108.188 55.8-203.346 140.426-262.864zM114.59 576c0 147.078 128.31 269.41 290.743 269.41v58.514c-190.847 0-349.257-144.761-349.257-327.924zM405.333 845.41c118.17 0 219.035-65.319 263.835-157.217l52.597 25.641c-55.040 112.902-176.895 190.090-316.432 190.090zM669.357 687.812c17.198-34.014 26.719-71.745 26.719-111.812h58.514c0 49.533-11.812 96.281-33.014 138.214zM810.669 172.37l-16.831 23.931c-4.265-2.999-7.651-7.084-9.807-11.831zM753.496 46.506l26.553-12.286 0.085 0.186-26.638 12.1zM681.816 36.69l22.573 18.613-0.076 0.092-22.497-18.705zM618.669 112.638l22.497 18.705c-5.559 6.685-13.803 10.552-22.497 10.552zM365.656 229.545l-22.509 18.69c-8.905-10.725-9.007-26.243-0.244-37.083zM405.336 277.331v29.257c-8.701 0-16.95-3.873-22.509-10.567zM695.469 701.011l6.541 28.517c-11.059 2.536-22.588-1.55-29.58-10.485s-8.189-21.108-3.070-31.233zM909.412 411.305c0-87.226-44.894-165.295-115.574-215.004l33.662-47.863c84.627 59.518 140.426 154.678 140.426 262.866zM784.031 184.47l-57.173-125.865 53.275-24.2 57.173 125.865zM726.943 58.791c-4.505-9.736-16.701-10.586-22.555-3.488l-45.146-37.226c34.253-41.541 98.857-31.295 120.806 16.142zM704.313 55.395l-63.146 75.948-44.994-37.41 63.146-75.948zM618.669 141.895c-94.65 0-178.359 41.839-230.26 106.042l-45.505-36.786c63.299-78.303 163.909-127.771 275.766-127.771zM388.165 210.854l39.68 47.786-45.018 37.381-39.68-47.786zM405.336 248.074c190.847 0 349.257 144.761 349.257 327.924h-58.514c0-147.078-128.31-269.409-290.743-269.409zM754.593 575.998c0 49.533-11.812 96.281-33.014 138.214l-52.219-26.403c17.198-34.014 26.719-71.745 26.719-111.812zM688.929 672.494c127.843-29.322 220.483-136.472 220.483-261.189h58.514c0 155.177-114.719 283.544-265.916 318.222zM298.667 605.257c-16.158 0-29.257-13.099-29.257-29.257s13.099-29.257 29.257-29.257zM512 546.743c16.158 0 29.257 13.099 29.257 29.257s-13.099 29.257-29.257 29.257zM298.667 546.743h213.333v58.514h-213.333z" />
</font>
</defs>
</svg>
